<svg width="16" height="16" viewBox="0 0 16 16" fill="none" xmlns="http://www.w3.org/2000/svg">
<path d="M4.36411 5.44183C4.22063 5.40398 4.10137 5.30435 4.0386 5.16989C3.97582 5.03543 3.97602 4.88004 4.03912 4.74573L5.14629 2.38947C5.2288 2.21388 5.40543 2.10187 5.59944 2.10211C5.79345 2.10235 5.96981 2.2148 6.05188 2.39059L6.5403 3.43675C6.55776 3.42989 6.57579 3.42394 6.59434 3.41897C9.49257 2.64239 12.4716 4.36233 13.2482 7.26056C14.0248 10.1588 12.3048 13.1378 9.40658 13.9144C6.50835 14.691 3.52933 12.971 2.75275 10.0728C2.5058 9.15118 2.51136 8.21992 2.72765 7.3541C2.79457 7.08619 3.06601 6.92326 3.33392 6.99018C3.60183 7.05711 3.76476 7.32855 3.69783 7.59646C3.52164 8.30178 3.51678 9.0605 3.71868 9.81398C4.35231 12.1787 6.783 13.5821 9.14777 12.9485C11.5125 12.3148 12.9159 9.88414 12.2823 7.51938C11.659 5.19328 9.29693 3.7974 6.9692 4.35544L7.462 5.41097C7.54407 5.58677 7.51704 5.79417 7.39265 5.94306C7.26827 6.09195 7.06898 6.15544 6.88139 6.10595L4.36411 5.44183Z" fill="#143A4F"/>
</svg>
