<svg width="24" height="24" viewBox="0 0 24 24" fill="none" xmlns="http://www.w3.org/2000/svg">
<circle cx="12" cy="12" r="12" fill="white"/>
<path fill-rule="evenodd" clip-rule="evenodd" d="M6.16602 10.6865C6.16602 8.8862 7.74544 7.5 9.59935 7.5C10.555 7.5 11.3959 7.94809 11.9993 8.52789C12.6028 7.94809 13.4437 7.5 14.3993 7.5C16.2533 7.5 17.8327 8.8862 17.8327 10.6865C17.8327 11.9198 17.3068 13.0043 16.5781 13.921C15.8508 14.8362 14.8993 15.6129 13.9883 16.244C13.6404 16.485 13.2884 16.7074 12.9662 16.8715C12.6637 17.0255 12.3158 17.1667 11.9993 17.1667C11.6829 17.1667 11.335 17.0255 11.0325 16.8715C10.7103 16.7074 10.3583 16.485 10.0104 16.244C9.09938 15.6129 8.14793 14.8362 7.42056 13.921C6.69194 13.0043 6.16602 11.9198 6.16602 10.6865ZM9.59935 8.5C8.21318 8.5 7.16602 9.5194 7.16602 10.6865C7.16602 11.6222 7.56321 12.4933 8.20341 13.2988C8.84487 14.1059 9.70796 14.8179 10.5798 15.422C10.9098 15.6505 11.2205 15.845 11.4863 15.9804C11.7718 16.1258 11.9371 16.1667 11.9993 16.1667C12.0616 16.1667 12.2269 16.1258 12.5124 15.9804C12.7782 15.845 13.0889 15.6505 13.4189 15.422C14.2907 14.8179 15.1538 14.1059 15.7953 13.2988C16.4355 12.4933 16.8327 11.6222 16.8327 10.6865C16.8327 9.5194 15.7855 8.5 14.3993 8.5C13.6032 8.5 12.8599 8.97561 12.3957 9.57928C12.3011 9.70237 12.1546 9.77451 11.9993 9.77451C11.8441 9.77451 11.6976 9.70237 11.603 9.57928C11.1388 8.97561 10.3954 8.5 9.59935 8.5Z" fill="#143A4F"/>
</svg>
