<svg width="16" height="16" viewBox="0 0 16 16" fill="none" xmlns="http://www.w3.org/2000/svg">
<path d="M9.1975 2.75731C8.54256 2.0809 7.45773 2.0809 6.80278 2.75731L3.6038 6.06113C3.42008 6.25087 3.29662 6.49075 3.24898 6.75053C2.86048 8.86918 2.8318 11.0381 3.16415 13.1663L3.28182 13.9198C3.31899 14.1578 3.52397 14.3332 3.76484 14.3332H6.00014C6.18424 14.3332 6.33348 14.184 6.33348 13.9999V9.33323H9.66681V13.9999C9.66681 14.184 9.81605 14.3332 10.0001 14.3332H12.2354C12.4763 14.3332 12.6813 14.1578 12.7184 13.9198L12.8361 13.1663C13.1685 11.0381 13.1398 8.86918 12.7513 6.75053C12.7036 6.49075 12.5802 6.25087 12.3965 6.06113L9.1975 2.75731Z" fill="#143A4F"/>
</svg>
