<svg width="22" height="24" viewBox="0 0 22 24" fill="none" xmlns="http://www.w3.org/2000/svg">
<path d="M20.7732 18.7033C20.407 19.5418 19.9734 20.3136 19.4711 21.0232C18.7864 21.9906 18.2258 22.6602 17.7938 23.032C17.1241 23.6424 16.4065 23.955 15.6381 23.9728C15.0865 23.9728 14.4212 23.8172 13.6468 23.5017C12.8699 23.1876 12.1559 23.032 11.5031 23.032C10.8184 23.032 10.0841 23.1876 9.29864 23.5017C8.512 23.8172 7.87829 23.9816 7.39378 23.9979C6.65692 24.0291 5.92246 23.7076 5.18934 23.032C4.72142 22.6276 4.13615 21.9343 3.43502 20.9521C2.68277 19.9033 2.06431 18.687 1.5798 17.3004C1.0609 15.8026 0.800781 14.3523 0.800781 12.9482C0.800781 11.3398 1.1515 9.95259 1.85397 8.79011C2.40605 7.85636 3.14052 7.11979 4.05976 6.57906C4.979 6.03834 5.97224 5.76279 7.04187 5.74516C7.62714 5.74516 8.39465 5.92456 9.34842 6.27715C10.2995 6.63091 10.9102 6.81032 11.1779 6.81032C11.3781 6.81032 12.0565 6.60054 13.2066 6.18233C14.2941 5.79449 15.212 5.63391 15.964 5.69716C18.0016 5.86012 19.5324 6.6561 20.5505 8.09013C18.7281 9.18432 17.8267 10.7169 17.8446 12.6829C17.8611 14.2142 18.4217 15.4886 19.5235 16.5004C20.0228 16.97 20.5804 17.333 21.2008 17.5907C21.0662 17.9774 20.9242 18.3477 20.7732 18.7033ZM16.1 0.480137C16.1 1.68041 15.6575 2.8011 14.7755 3.8384C13.7111 5.07155 12.4237 5.78412 11.0275 5.67168C11.0098 5.52769 10.9994 5.37614 10.9994 5.21688C10.9994 4.06462 11.5056 2.83147 12.4045 1.82321C12.8533 1.3127 13.4241 0.888228 14.1162 0.549615C14.8069 0.216055 15.4602 0.031589 16.0746 0C16.0926 0.160458 16.1 0.320926 16.1 0.480121V0.480137Z" fill="black"/>
</svg>
