<svg width="85" height="36" viewBox="0 0 85 36" fill="none" xmlns="http://www.w3.org/2000/svg">
<path fill-rule="evenodd" clip-rule="evenodd" d="M2.91531 19.0624V30.4248C2.91531 33.5039 5.45326 36 8.58398 36C11.7147 36 14.2526 33.5039 14.2526 30.4248V17.4975C15.8175 16.044 16.844 13.9334 16.844 11.3009C16.844 8.66495 15.8083 6.55251 14.2324 5.10107L14.2303 5.07663C12.8229 3.78133 10.9852 3.01296 9.06987 2.8694L9.06987 2.86726C10.9522 3.0035 12.7655 3.65252 14.1972 4.79259C13.8104 2.08403 11.4446 0 8.58398 0C5.72797 0 3.36527 2.07728 2.97262 4.77944C1.19433 6.23312 0 8.46525 0 11.3009C0 11.4652 0.00398304 11.6274 0.0118318 11.7876H0.0129629C0.205792 15.5455 2.5281 18.167 5.45911 19.2178C6.39795 19.5347 7.39648 19.6986 8.40977 19.6986C6.23875 19.8624 4.40093 19.6507 2.91531 19.0624ZM4.21101 11.3039C4.21101 14.016 6.24351 15.6106 8.41618 15.6106C10.5888 15.6106 12.633 14.016 12.633 11.3039C12.633 8.60349 10.5888 7.00885 8.41618 7.00885C6.24351 7.00885 4.21101 8.60349 4.21101 11.3039ZM9.42986 27.3059C9.38528 27.1599 9.45551 27.0065 9.57487 26.9092C9.83955 26.6935 10.0064 26.3782 10.0064 26.027C10.0064 25.3767 9.43421 24.8496 8.72834 24.8496C8.02247 24.8496 7.45025 25.3767 7.45025 26.027C7.45025 26.3983 7.63679 26.7295 7.92823 26.9453C8.0577 27.0412 8.13635 27.2009 8.08974 27.3535L7.61774 28.8995C7.55533 29.104 7.71096 29.3097 7.92798 29.3097H9.60616C9.82318 29.3097 9.97881 29.104 9.9164 28.8995L9.42986 27.3059Z" fill="#5DB86C"/>
<path d="M28.4 26V11.6H31.12V18.24L36.6 11.6H39.92L33.9 18.7L40.3 26H36.86L31.12 19.44V26H28.4ZM48.4608 26V20.9C48.4608 20.6533 48.4474 20.34 48.4208 19.96C48.3941 19.5733 48.3108 19.1867 48.1708 18.8C48.0308 18.4133 47.8008 18.09 47.4808 17.83C47.1674 17.57 46.7208 17.44 46.1408 17.44C45.9074 17.44 45.6574 17.4767 45.3908 17.55C45.1241 17.6233 44.8741 17.7667 44.6408 17.98C44.4074 18.1867 44.2141 18.4933 44.0608 18.9C43.9141 19.3067 43.8408 19.8467 43.8408 20.52L42.2808 19.78C42.2808 18.9267 42.4541 18.1267 42.8008 17.38C43.1474 16.6333 43.6674 16.03 44.3608 15.57C45.0608 15.11 45.9408 14.88 47.0008 14.88C47.8474 14.88 48.5374 15.0233 49.0708 15.31C49.6041 15.5967 50.0174 15.96 50.3108 16.4C50.6108 16.84 50.8241 17.3 50.9508 17.78C51.0774 18.2533 51.1541 18.6867 51.1808 19.08C51.2074 19.4733 51.2208 19.76 51.2208 19.94V26H48.4608ZM41.0808 26V15.2H43.5008V18.78H43.8408V26H41.0808ZM57.8803 26.3C56.7936 26.3 55.8403 26.0567 55.0203 25.57C54.2003 25.0833 53.5603 24.4133 53.1003 23.56C52.647 22.7 52.4203 21.7133 52.4203 20.6C52.4203 19.4733 52.6536 18.4833 53.1203 17.63C53.587 16.77 54.2303 16.1 55.0503 15.62C55.8703 15.14 56.8136 14.9 57.8803 14.9C58.967 14.9 59.9203 15.1433 60.7403 15.63C61.567 16.1167 62.2103 16.79 62.6703 17.65C63.1303 18.5033 63.3603 19.4867 63.3603 20.6C63.3603 21.72 63.127 22.71 62.6603 23.57C62.2003 24.4233 61.557 25.0933 60.7303 25.58C59.9103 26.06 58.9603 26.3 57.8803 26.3ZM57.8803 23.76C58.7536 23.76 59.4036 23.4667 59.8303 22.88C60.2636 22.2867 60.4803 21.5267 60.4803 20.6C60.4803 19.64 60.2603 18.8733 59.8203 18.3C59.387 17.7267 58.7403 17.44 57.8803 17.44C57.287 17.44 56.8003 17.5733 56.4203 17.84C56.0403 18.1067 55.757 18.4767 55.5703 18.95C55.3903 19.4233 55.3003 19.9733 55.3003 20.6C55.3003 21.5667 55.517 22.3367 55.9503 22.91C56.3903 23.4767 57.0336 23.76 57.8803 23.76ZM70.2594 26.3C69.186 26.3 68.2894 26.05 67.5694 25.55C66.8494 25.05 66.306 24.37 65.9394 23.51C65.5794 22.65 65.3994 21.68 65.3994 20.6C65.3994 19.52 65.5794 18.55 65.9394 17.69C66.2994 16.83 66.8294 16.15 67.5294 15.65C68.2294 15.15 69.0927 14.9 70.1194 14.9C71.1527 14.9 72.0527 15.1467 72.8194 15.64C73.586 16.1333 74.1794 16.81 74.5994 17.67C75.026 18.5233 75.2394 19.5 75.2394 20.6C75.2394 21.68 75.0294 22.65 74.6094 23.51C74.196 24.37 73.616 25.05 72.8694 25.55C72.1227 26.05 71.2527 26.3 70.2594 26.3ZM64.9394 26V11.6H67.6794V18.6H67.3394V26H64.9394ZM69.8194 23.88C70.406 23.88 70.886 23.7333 71.2594 23.44C71.6327 23.1467 71.9094 22.7533 72.0894 22.26C72.2694 21.76 72.3594 21.2067 72.3594 20.6C72.3594 20 72.266 19.4533 72.0794 18.96C71.8927 18.46 71.6027 18.0633 71.2094 17.77C70.8227 17.47 70.326 17.32 69.7194 17.32C69.1527 17.32 68.6927 17.4567 68.3394 17.73C67.9927 18.0033 67.7394 18.3867 67.5794 18.88C67.4194 19.3733 67.3394 19.9467 67.3394 20.6C67.3394 21.2533 67.4194 21.8267 67.5794 22.32C67.7394 22.8133 67.9994 23.1967 68.3594 23.47C68.726 23.7433 69.2127 23.88 69.8194 23.88Z" fill="#143A4F"/>
</svg>
