<svg width="36" height="36" viewBox="0 0 36 36" fill="none" xmlns="http://www.w3.org/2000/svg">
<path d="M24.0994 13.4922C24.5387 13.0529 24.5387 12.3405 24.0994 11.9012C23.66 11.4619 22.9477 11.4619 22.5084 11.9012L18.0006 16.409L13.4928 11.9012C13.0534 11.4619 12.3411 11.4619 11.9018 11.9012C11.4624 12.3405 11.4624 13.0529 11.9018 13.4922L16.4096 18L11.9018 22.5078C11.4624 22.9471 11.4624 23.6595 11.9018 24.0988C12.3411 24.5381 13.0534 24.5381 13.4928 24.0988L18.0006 19.591L22.5084 24.0988C22.9477 24.5381 23.66 24.5381 24.0994 24.0988C24.5387 23.6595 24.5387 22.9471 24.0994 22.5078L19.5916 18L24.0994 13.4922Z" fill="white"/>
</svg>
