<svg width="16" height="16" viewBox="0 0 16 16" fill="none" xmlns="http://www.w3.org/2000/svg">
<path d="M8.49935 4.66699C8.49935 4.39085 8.27549 4.16699 7.99935 4.16699C7.72321 4.16699 7.49935 4.39085 7.49935 4.66699V7.50032H4.66602C4.38987 7.50032 4.16602 7.72418 4.16602 8.00032C4.16602 8.27647 4.38987 8.50032 4.66602 8.50032H7.49935V11.3337C7.49935 11.6098 7.72321 11.8337 7.99935 11.8337C8.27549 11.8337 8.49935 11.6098 8.49935 11.3337V8.50033H11.3327C11.6088 8.50033 11.8327 8.27647 11.8327 8.00033C11.8327 7.72418 11.6088 7.50033 11.3327 7.50033H8.49935V4.66699Z" fill="black"/>
</svg>
