<svg width="16" height="16" viewBox="0 0 16 16" fill="none" xmlns="http://www.w3.org/2000/svg">
<path fill-rule="evenodd" clip-rule="evenodd" d="M9.59026 10.2974C7.82341 11.7125 5.23713 11.6011 3.59927 9.96323C1.84191 8.20587 1.84191 5.35663 3.59927 3.59927C5.35663 1.84191 8.20587 1.84191 9.96323 3.59927C11.6011 5.23712 11.7125 7.82341 10.2974 9.59025L13.7345 13.0273C13.9297 13.2226 13.9297 13.5392 13.7345 13.7344C13.5392 13.9297 13.2226 13.9297 13.0273 13.7344L9.59026 10.2974ZM4.30638 9.25612C2.93954 7.88929 2.93954 5.67321 4.30638 4.30638C5.67321 2.93954 7.88929 2.93954 9.25612 4.30638C10.622 5.67221 10.623 7.88603 9.25913 9.25311C9.25812 9.2541 9.25712 9.2551 9.25611 9.25611C9.25511 9.25711 9.25411 9.25812 9.25312 9.25913C7.88604 10.623 5.67221 10.622 4.30638 9.25612Z" fill="#7B7F99"/>
</svg>
